<?xml version="1.0" standalone="no"?>
<!DOCTYPE svg PUBLIC "-//W3C//DTD SVG 20010904//EN"
 "http://www.w3.org/TR/2001/REC-SVG-20010904/DTD/svg10.dtd">
<svg version="1.0" xmlns="http://www.w3.org/2000/svg"
 width="1280.000000pt" height="640.000000pt" viewBox="0 0 1280.000000 640.000000"
 preserveAspectRatio="xMidYMid meet">
<metadata>
Created by potrace 1.15, written by Peter Selinger 2001-2017
</metadata>
<g transform="translate(0.000000,640.000000) scale(0.100000,-0.100000)"
fill="#000000" stroke="none">
<path d="M4280 4335 c0 -8 -7 -15 -15 -15 -11 0 -15 -11 -15 -43 0 -24 -3 -79
-7 -121 l-6 -77 -18 28 c-12 17 -19 46 -19 76 0 46 -1 47 -30 47 -29 0 -30 -2
-30 -46 0 -37 -11 -65 -56 -146 -31 -54 -62 -102 -70 -105 -11 -4 -14 -29 -14
-109 l0 -104 -95 0 -95 0 0 30 c0 20 -5 30 -15 30 -12 0 -15 13 -15 55 l0 55
-40 0 -40 0 0 -50 c0 -47 -2 -50 -25 -50 -22 0 -25 -4 -25 -35 l0 -35 -60 0
-60 0 0 143 -1 142 -42 -45 -42 -45 33 -3 32 -3 0 -95 0 -94 -44 0 c-39 0 -45
3 -48 23 -2 15 -9 21 -20 19 -16 -2 -18 6 -18 65 l0 68 -37 0 -38 0 -5 -60
c-5 -56 -7 -60 -31 -63 -22 -3 -25 -7 -21 -28 3 -19 0 -24 -17 -24 -15 0 -21
-6 -21 -23 0 -18 -17 -33 -77 -70 -129 -77 -225 -117 -282 -117 -39 0 -51 4
-51 15 0 12 -13 15 -60 15 -47 0 -60 -3 -60 -15 0 -11 -11 -15 -40 -15 l-40 0
0 -53 0 -52 -160 52 c-134 43 -226 67 -457 118 -16 4 -23 15 -28 45 l-7 40
-48 0 c-31 0 -88 14 -162 41 -104 37 -120 40 -198 37 -77 -3 -85 -5 -88 -24
l-3 -21 -122 24 c-403 79 -722 136 -857 154 l-155 20 -152 80 c-84 43 -154 75
-158 70 -3 -5 49 -38 114 -72 66 -35 119 -65 117 -66 -2 -2 -43 1 -92 7 -49 5
-101 10 -117 10 l-27 0 2 -932 3 -933 6395 0 6395 0 3 584 2 585 -22 -21 c-13
-11 -44 -23 -70 -26 l-47 -7 5 29 c7 35 -14 58 -61 67 -45 8 -105 -3 -111 -21
-5 -12 -11 -11 -40 2 -33 16 -35 16 -64 -5 -54 -40 -170 -16 -170 35 0 15 -8
27 -23 32 -22 9 -23 16 -36 192 -7 101 -15 186 -16 187 -2 2 -20 -1 -39 -8
-40 -13 -39 -8 -27 -124 5 -45 14 -82 21 -86 8 -5 15 -39 18 -89 4 -77 4 -81
-17 -81 -26 0 -27 6 -41 194 -6 83 -11 151 -13 151 -1 1 -18 0 -38 -2 l-37 -5
5 -81 c3 -45 9 -86 14 -92 5 -5 9 -51 9 -102 0 -91 0 -93 -26 -99 -25 -6 -98
-2 -182 12 -37 6 -39 5 -45 -24 -4 -22 -13 -31 -29 -34 -21 -3 -23 -9 -25 -63
-5 -109 -11 -125 -49 -141 -28 -12 -42 -12 -75 -3 -44 14 -45 29 -9 81 19 26
19 27 -1 52 -19 25 -26 26 -110 26 -78 0 -89 2 -90 18 0 9 -6 107 -13 217 -6
110 -8 202 -4 203 10 4 10 116 1 190 l-6 53 -54 -3 c-29 -2 -53 -6 -53 -10 0
-5 0 -55 0 -112 l0 -103 30 -6 30 -6 0 -216 0 -215 -69 0 -70 0 -5 43 c-3 23
-13 119 -21 212 -12 135 -12 172 -2 180 9 7 11 42 9 123 l-4 112 -59 0 -59 0
0 -120 0 -120 29 0 30 0 1 -215 1 -215 -101 0 -100 0 0 63 c0 34 -3 72 -6 85
-5 16 -2 22 10 22 13 0 16 13 16 80 l0 80 -40 0 -40 0 0 -79 c0 -48 4 -81 11
-83 7 -2 8 -32 3 -91 -5 -71 -10 -87 -21 -83 -8 4 -21 6 -29 6 -10 0 -14 14
-14 55 l0 55 -40 0 c-38 0 -40 2 -40 30 0 17 5 30 10 30 6 0 10 33 10 80 l0
80 -50 0 -50 0 0 -50 c0 -54 -5 -60 -26 -32 -10 12 -14 67 -15 207 l-2 190 -9
-195 -9 -195 -30 -30 -29 -29 -6 32 c-6 31 -8 32 -55 32 l-49 0 0 -40 c0 -40
0 -40 -39 -40 -36 0 -40 3 -43 28 l-3 27 -142 3 -143 3 0 34 c0 35 0 35 -45
35 l-45 0 0 -54 c0 -57 -9 -66 -67 -66 -21 0 -23 5 -23 50 l0 50 -45 0 -45 0
0 -70 0 -71 -37 1 c-21 1 -56 -3 -78 -9 -60 -16 -105 -14 -105 4 0 22 -17 18
-23 -5 -4 -17 -14 -20 -56 -20 -44 0 -51 3 -51 20 0 12 -7 20 -16 20 -12 0
-15 -7 -11 -26 5 -30 2 -31 -75 -37 l-58 -4 0 129 c0 79 4 128 10 128 11 0 13
113 3 173 -5 35 -8 38 -37 35 l-31 -3 0 -230 0 -230 -37 -3 -38 -3 0 113 c0
67 4 118 11 125 7 7 8 45 3 112 -6 95 -8 101 -29 101 -21 0 -22 -5 -28 -107
-4 -67 -2 -112 4 -119 7 -8 8 -48 3 -110 -6 -82 -10 -97 -25 -101 -11 -3 -19
-11 -19 -19 0 -7 -11 -16 -25 -19 -14 -3 -36 -7 -49 -10 l-25 -5 -3 126 c-2
94 0 128 10 131 8 4 12 33 12 99 l0 94 -32 -6 c-18 -3 -40 -8 -48 -11 -8 -3
-24 -5 -36 -4 -25 2 -34 -33 -34 -139 0 -36 -3 -109 -7 -162 l-6 -98 -34 0
-33 0 0 195 c0 132 -3 195 -11 195 -19 0 -39 28 -39 54 0 19 -5 26 -20 26 -15
0 -20 7 -20 25 0 20 -5 25 -25 25 -18 0 -25 5 -25 20 0 11 -7 20 -15 20 -8 0
-15 6 -15 14 0 8 -7 17 -16 20 -11 4 -15 14 -12 31 5 22 2 25 -27 25 -24 0
-34 5 -38 20 -5 18 -14 20 -101 20 l-95 0 -41 -53 c-36 -48 -40 -60 -40 -110
l0 -57 -85 0 c-76 0 -86 2 -83 18 3 16 -13 17 -189 20 -188 2 -193 2 -193 -18
0 -17 -6 -20 -48 -20 -36 0 -50 -5 -60 -20 -7 -12 -23 -20 -41 -20 -21 0 -30
-6 -34 -21 -5 -17 -12 -21 -36 -17 l-31 5 0 -249 0 -248 -85 0 -85 0 0 50 c0
38 -4 50 -15 50 -12 0 -15 13 -15 55 0 42 -3 55 -15 55 -11 0 -15 11 -15 43 0
38 -6 48 -45 87 -27 27 -45 53 -45 67 0 18 -6 23 -25 23 -19 0 -25 -5 -25 -23
0 -13 -15 -38 -35 -57 -31 -30 -35 -39 -35 -87 l0 -53 -185 0 -185 0 0 375 0
375 -25 0 c-23 0 -25 4 -25 45 l0 45 -55 0 -55 0 0 49 c0 28 -4 52 -8 55 -22
13 -171 18 -223 7 l-57 -12 -6 -49 -7 -50 -49 0 -50 0 0 -40 c0 -36 -2 -40
-25 -40 l-25 0 0 -289 c0 -254 -2 -290 -16 -295 -13 -5 -15 -20 -12 -86 l3
-80 -42 0 c-40 0 -43 2 -43 26 0 17 -6 28 -20 31 -19 5 -20 14 -20 214 0 196
-1 209 -18 209 -11 0 -27 9 -37 20 -23 25 -115 29 -135 5 -7 -8 -25 -15 -41
-15 -27 0 -29 -3 -29 -40 l0 -40 -60 0 -60 0 0 -75 c0 -60 -3 -75 -15 -75 -10
0 -15 11 -15 35 l0 35 -95 0 c-78 0 -95 -3 -95 -15 0 -12 -16 -15 -85 -15
l-85 0 0 -50 c0 -43 -3 -50 -20 -50 -19 0 -20 -7 -20 -95 l0 -95 -50 0 -50 0
0 125 0 125 -40 0 c-22 0 -40 5 -40 10 0 6 -22 10 -50 10 -27 0 -50 -4 -50
-10 0 -5 -18 -10 -40 -10 l-40 0 0 -45 0 -44 -57 -3 c-51 -3 -58 -6 -61 -25
-3 -18 -10 -23 -33 -23 l-29 0 0 315 c0 180 -4 315 -9 315 -5 0 -12 33 -16 73
-7 66 -10 75 -46 110 -40 39 -89 51 -89 22z m-4158 -461 c8 -5 12 -34 4 -34
-10 0 -96 42 -96 47 0 6 78 -5 92 -13z m117 -20 c28 -6 31 -10 31 -46 0 -22
-3 -38 -7 -36 -5 2 -27 12 -50 22 -34 14 -43 23 -43 42 0 26 12 29 69 18z
m-151 -23 c36 -18 37 -20 34 -69 l-4 -50 -44 15 -44 15 0 54 c0 31 4 54 10 54
6 0 27 -9 48 -19z m300 -1 l42 -19 0 -57 c0 -41 -3 -55 -12 -51 -103 41 -96
34 -100 93 -4 62 2 65 70 34z m163 -10 c14 0 19 -7 19 -25 0 -30 1 -30 -55 -3
-52 25 -59 43 -14 34 17 -3 40 -6 50 -6z m137 -26 c6 -2 12 -19 12 -39 0 -38
-11 -43 -55 -23 -19 9 -25 19 -25 45 0 31 2 33 28 27 15 -3 33 -7 40 -10z
m-463 -26 c42 -21 45 -25 45 -61 0 -36 -2 -39 -22 -33 -13 4 -35 9 -50 12 -26
6 -28 10 -28 55 0 27 2 49 5 49 2 0 25 -10 50 -22z m345 -78 c0 -28 -3 -50 -7
-50 -4 0 -27 8 -50 18 l-43 17 0 58 0 57 50 -25 c50 -25 50 -25 50 -75z m233
90 c14 0 17 -10 17 -59 l0 -60 -40 17 c-39 17 -40 18 -40 66 0 45 1 48 23 42
12 -3 30 -6 40 -6z m116 -26 c31 -6 31 -7 31 -70 0 -69 -3 -71 -53 -51 -31 14
-32 15 -29 70 2 32 7 57 12 57 4 0 22 -3 39 -6z m115 -14 c25 -9 26 -13 26
-89 l0 -80 -37 13 -38 13 -3 76 c-3 83 0 87 52 67z m119 -25 l28 -6 -2 -89
c-2 -50 -7 -90 -11 -90 -5 0 -23 6 -41 13 l-32 14 3 86 c2 60 7 85 15 82 7 -2
25 -6 40 -10z m-1035 -78 l3 -56 -46 16 -45 17 0 53 0 52 43 -13 42 -12 3 -57z
m282 48 c21 -11 30 -23 30 -41 0 -24 -2 -25 -32 -19 -69 15 -78 22 -78 60 0
33 1 34 25 25 14 -5 39 -17 55 -25z m288 -43 c3 -57 -2 -61 -49 -36 -20 10
-29 20 -25 30 3 9 6 31 6 50 l0 34 33 -13 c30 -12 32 -17 35 -65z m561 57 l31
-11 0 -99 c0 -54 -3 -99 -7 -99 -4 0 -22 5 -40 12 l-33 12 0 98 c0 54 4 98 9
98 4 0 22 -5 40 -11z m-1004 -49 c23 -9 25 -15 25 -66 0 -41 -3 -54 -12 -50
-7 2 -30 10 -50 17 -38 12 -38 13 -38 67 0 59 1 60 75 32z m539 5 c35 -15 36
-17 36 -65 0 -55 0 -55 -47 -38 -32 12 -33 14 -33 65 0 29 2 53 4 53 2 0 20
-7 40 -15z m2456 10 c0 -14 -164 -132 -231 -166 -87 -43 -99 -46 -99 -24 0 10
35 32 93 59 51 24 125 64 163 90 71 48 74 49 74 41z m-2716 -35 c33 -14 46
-25 46 -40 0 -24 4 -24 -53 -4 -39 13 -47 20 -47 40 0 29 -3 29 54 4z m2726
-65 l0 -75 -38 -19 c-37 -19 -275 -101 -293 -101 -5 0 -9 13 -9 29 0 27 8 33
103 80 56 28 131 75 167 105 36 30 66 55 68 55 1 1 2 -33 2 -74z m-2829 -26
c-1 -30 -4 -55 -5 -56 -2 -2 -24 4 -49 13 l-47 16 0 58 0 59 53 -18 52 -18 -4
-54z m507 60 c21 -8 23 -13 16 -56 -3 -27 -8 -49 -9 -51 -1 -1 -18 5 -38 13
-36 15 -37 17 -37 66 0 55 -2 54 68 28z m-830 -30 c19 -7 22 -16 22 -59 0 -49
-1 -50 -29 -50 -55 0 -61 7 -61 72 0 65 -3 63 68 37z m557 7 c19 -8 35 -22 35
-30 0 -13 -5 -13 -37 -2 -21 7 -39 20 -41 29 -4 21 -1 21 43 3z m-87 -26 c1 0
2 -27 2 -61 0 -60 0 -61 -25 -55 -73 18 -75 21 -75 85 l0 60 48 -14 c26 -8 48
-15 50 -15z m492 -52 c0 -53 0 -53 -47 -36 -32 12 -33 14 -33 64 l0 52 40 -15
c39 -16 40 -17 40 -65z m-827 21 c31 -11 37 -18 37 -42 0 -27 -1 -28 -47 -25
l-48 3 -3 44 c-2 33 0 42 10 39 7 -3 30 -11 51 -19z m551 6 c20 -8 36 -19 36
-25 0 -12 -73 14 -78 28 -5 15 -2 15 42 -3z m-125 -6 c29 -10 31 -14 31 -61
l0 -49 -37 3 -38 3 -3 58 c-3 61 -2 63 47 46z m478 -1 c31 -11 33 -15 33 -60
0 -52 -2 -53 -49 -37 -29 10 -31 14 -31 60 0 54 0 54 47 37z m883 -14 c0 -22
-4 -25 -27 -22 -20 2 -29 9 -31 26 -3 19 1 22 27 22 27 0 31 -4 31 -26z m78
-16 c3 -24 0 -28 -22 -28 -30 0 -37 9 -29 39 8 33 47 25 51 -11z m72 -24 c0
-40 -34 -27 -38 14 -3 31 -2 33 17 22 13 -6 21 -21 21 -36z m78 -13 c3 -29 1
-32 -20 -29 -19 2 -24 10 -26 40 -3 36 -2 37 20 29 16 -6 24 -17 26 -40z
m-1828 -4 c0 -5 -7 -6 -16 -3 -9 3 -31 6 -50 6 -27 0 -34 4 -34 19 0 18 2 19
50 3 28 -9 50 -20 50 -25z m369 32 c28 -10 31 -15 31 -50 0 -42 -1 -42 -49
-33 -29 6 -31 9 -31 50 0 48 2 49 49 33z m126 -4 c17 -7 23 -14 15 -14 -8 0
-28 6 -45 14 -16 7 -23 14 -15 14 8 0 29 -6 45 -14z m329 0 c34 -14 36 -18 36
-60 0 -49 -2 -50 -49 -34 -29 10 -31 14 -31 60 0 27 2 49 4 49 2 0 20 -7 40
-15z m1058 0 c9 -4 12 -18 10 -44 -3 -32 -7 -38 -23 -34 -15 4 -19 14 -19 44
0 38 5 44 32 34z m62 -21 c11 -4 16 -19 16 -50 0 -42 -1 -44 -20 -34 -15 8
-20 21 -20 50 0 43 0 43 24 34z m886 -13 c0 -13 -20 -27 -72 -51 -67 -29 -223
-90 -234 -90 -2 0 -4 9 -4 20 0 12 -7 20 -17 21 -10 0 23 13 72 28 50 16 124
42 165 59 92 37 90 36 90 13z m-2341 3 c26 -6 31 -11 31 -35 0 -31 -2 -32 -49
-23 -26 6 -31 11 -31 35 0 31 2 32 49 23z m1102 -4 c5 0 9 -26 9 -58 0 -49 -4
-62 -25 -82 l-25 -23 0 87 c0 76 2 87 16 82 9 -3 20 -6 25 -6z m6849 -105 c0
-96 -3 -115 -15 -115 -12 0 -15 19 -15 115 0 96 3 115 15 115 12 0 15 -19 15
-115z m-6776 99 c12 -5 16 -21 16 -70 l0 -64 -30 0 -30 0 0 70 c0 72 5 79 44
64z m1496 -51 l0 -58 -35 52 c-19 29 -35 55 -35 58 0 3 16 5 35 5 l35 0 0 -57z
m-2557 26 c26 -7 37 -15 37 -29 0 -16 -5 -19 -32 -14 -53 9 -58 12 -58 34 0
23 2 23 53 9z m1147 -59 c0 -47 -2 -50 -25 -50 -24 0 -25 3 -25 53 0 61 5 70
31 56 15 -7 19 -21 19 -59z m1364 6 c56 -79 58 -96 11 -96 -31 0 -35 -3 -35
-25 0 -14 -4 -25 -10 -25 -5 0 -10 -11 -10 -25 0 -22 -4 -25 -35 -25 l-35 0 0
89 c0 49 4 101 9 114 10 26 38 57 51 57 4 0 29 -29 54 -64z m-287 -173 c-11
-11 -37 12 -37 33 0 17 -6 24 -20 24 -15 0 -20 7 -20 24 0 23 -4 25 -52 28
-28 2 -53 8 -55 13 -2 6 39 28 89 50 l93 40 3 -104 c1 -57 1 -105 -1 -108z
m-2101 191 c38 -10 28 -24 -16 -24 -34 0 -40 3 -40 21 0 15 4 19 16 15 9 -3
27 -9 40 -12z m1094 -18 c0 -29 -20 -66 -36 -66 -2 0 -4 23 -4 50 0 43 3 50
20 50 16 0 20 -7 20 -34z m-981 -12 c2 -2 -7 -4 -22 -4 -14 0 -29 5 -32 10 -6
10 42 4 54 -6z m-544 -94 c257 -30 235 -22 235 -80 l0 -50 -70 0 c-65 0 -70 2
-70 21 0 22 -1 22 -150 15 l-150 -7 0 60 c0 51 3 61 18 61 9 0 94 -9 187 -20z"/>
</g>
</svg>
