<?xml version="1.0" encoding="iso-8859-1"?>
<!-- Generator: Adobe Illustrator 16.0.0, SVG Export Plug-In . SVG Version: 6.00 Build 0)  -->
<!DOCTYPE svg PUBLIC "-//W3C//DTD SVG 1.1//EN" "http://www.w3.org/Graphics/SVG/1.1/DTD/svg11.dtd">
<svg version="1.1" id="Capa_1" xmlns="http://www.w3.org/2000/svg" xmlns:xlink="http://www.w3.org/1999/xlink" x="0px" y="0px"
	 width="491.206px" height="491.206px" viewBox="0 0 491.206 491.206" style="enable-background:new 0 0 491.206 491.206;"
	 xml:space="preserve">
<g>
	<path d="M489.007,187.56L247.776,49.329c-1.347-0.771-3-0.771-4.347,0L2.198,187.56c-1.719,0.984-2.561,3.002-2.05,4.916
		c0.509,1.915,2.243,3.247,4.225,3.247h24.118v192.541v19.672h-16.03c-2.413,0-4.371,1.956-4.371,4.37v25.778
		c0,2.415,1.958,4.372,4.371,4.372h466.285c2.415,0,4.371-1.957,4.371-4.372v-25.778c0-2.414-1.956-4.37-4.371-4.37h-16.029v-19.672
		V195.723h24.116c1.981,0,3.714-1.332,4.226-3.247C491.567,190.562,490.725,188.543,489.007,187.56z M156.231,195.723V383.89h-62.17
		V195.723H156.231z M405.888,213.147h48.086v154.246h-48.086V213.147z M453.974,204.403h-48.086v-7.755h48.086V204.403z
		 M405.888,376.136h48.086v7.754h-48.086V376.136z M401.517,392.634h52.457v15.301H37.231v-15.301h52.457h70.914h56.829h56.343
		h56.828H401.517z M37.231,376.053h48.085v7.84H37.231V376.053z M85.316,367.311H37.231V213.065h48.085V367.311L85.316,367.311z
		 M85.316,204.321H37.231v-7.672h48.085V204.321L85.316,204.321z M213.059,204.321h-48.085v-7.672h48.085V204.321z M164.974,213.065
		h48.085v154.246h-48.085V213.065L164.974,213.065z M164.974,376.053h48.085v7.84h-48.085V376.053L164.974,376.053z
		 M278.146,213.147h48.085v154.246h-48.085V213.147z M326.23,204.403h-48.085v-7.755h48.085V204.403z M278.146,383.89v-7.754h48.085
		v7.754H278.146z M269.403,383.89h-47.602V195.723h47.602V383.89z M474.374,416.676v17.038H16.832v-17.038h16.029h425.485H474.374z
		 M397.146,383.89h-62.17V195.723h62.17V383.89L397.146,383.89z M20.792,186.979l224.81-128.821L470.41,186.979H20.792z"/>
</g>
<g>
</g>
<g>
</g>
<g>
</g>
<g>
</g>
<g>
</g>
<g>
</g>
<g>
</g>
<g>
</g>
<g>
</g>
<g>
</g>
<g>
</g>
<g>
</g>
<g>
</g>
<g>
</g>
<g>
</g>
</svg>
